<svg width="149" height="54" viewBox="0 0 149 54" fill="none" xmlns="http://www.w3.org/2000/svg">
<path d="M6 29.9091L9.42857 34L22 19" stroke="#3282B8" stroke-width="2" stroke-linecap="round" stroke-linejoin="round"/>
<path d="M17.2 32.1V38.4C17.2 38.8774 17.0104 39.3352 16.6728 39.6728C16.3352 40.0104 15.8774 40.2 15.4 40.2H2.8C2.32261 40.2 1.86477 40.0104 1.52721 39.6728C1.18964 39.3352 1 38.8774 1 38.4V25.8C1 25.3226 1.18964 24.8648 1.52721 24.5272C1.86477 24.1896 2.32261 24 2.8 24H12.7" stroke="#1E1E1E" stroke-width="2" stroke-linecap="round" stroke-linejoin="round"/>
<g filter="url(#filter0_d_16_459)">
<path d="M29.468 17.212C29.78 16.876 30.152 16.684 30.584 16.636L45.164 16.42C45.86 16.636 46.208 16.984 46.208 17.464C46.208 18.664 45.716 19.264 44.732 19.264C42.716 19.264 40.808 19.312 39.008 19.408C38.888 21.592 38.828 23.404 38.828 24.844V26.068L38.972 38.704C38.972 39.472 38.78 39.904 38.396 40C38.132 40.096 37.772 40.144 37.316 40.144C36.62 40.144 36.236 39.748 36.164 38.956C36.02 37.108 35.948 33.664 35.948 28.624C35.948 23.56 36.02 20.512 36.164 19.48L33.932 19.516L30.26 19.48C29.9 19.48 29.6 19.372 29.36 19.156C29.144 18.916 29.036 18.616 29.036 18.256C29.036 17.896 29.18 17.548 29.468 17.212ZM48.6478 25.456C49.9438 24.184 51.7318 23.548 54.0118 23.548C55.8118 23.548 57.2518 24.244 58.3318 25.636C59.4118 27.004 59.9518 28.864 59.9518 31.216C59.9518 33.568 59.3518 35.62 58.1518 37.372C56.9758 39.1 55.4518 39.964 53.5798 39.964C51.5638 39.964 49.9198 39.1 48.6478 37.372C47.3758 35.62 46.7398 33.508 46.7398 31.036C46.7398 28.588 47.3758 26.728 48.6478 25.456ZM50.4478 35.32C51.2878 36.664 52.4158 37.336 53.8318 37.336C54.6478 37.336 55.3438 36.988 55.9198 36.292C56.8798 35.116 57.3598 33.556 57.3598 31.612C57.3598 29.644 57.0718 28.228 56.4958 27.364C55.9438 26.476 54.9838 26.032 53.6158 26.032C52.2238 26.032 51.1438 26.464 50.3758 27.328C49.6078 28.168 49.2238 29.38 49.2238 30.964C49.2238 32.548 49.6318 34 50.4478 35.32ZM65.1069 41.296C64.4829 41.296 64.1109 40.984 63.9909 40.36L63.6669 39.064C63.3549 38.824 63.1989 38.56 63.1989 38.272C63.1989 38.08 63.2829 37.864 63.4509 37.624C63.2349 36.064 63.0669 33.928 62.9469 31.216C62.8509 29.08 62.8029 27.712 62.8029 27.112C62.8029 26.176 62.8629 25.408 62.9829 24.808C63.1749 23.896 63.7269 23.44 64.6389 23.44C67.1349 23.44 69.5109 24.556 71.7669 26.788C74.0709 29.02 75.2229 31.444 75.2229 34.06C75.2229 35.98 74.6109 37.456 73.3869 38.488C72.1869 39.496 70.5189 40 68.3829 40C67.9029 40 67.3269 39.952 66.6549 39.856C66.6549 40.24 66.4989 40.576 66.1869 40.864C65.8749 41.152 65.5149 41.296 65.1069 41.296ZM70.7229 29.776C69.4509 28.192 67.7109 26.968 65.5029 26.104C65.4789 26.272 65.4669 26.728 65.4669 27.472C65.4669 27.88 65.5269 29.32 65.6469 31.792C65.7909 34.024 65.9709 35.908 66.1869 37.444C66.4269 37.492 67.1709 37.516 68.4189 37.516C71.2269 37.516 72.6309 36.724 72.6309 35.14C72.6309 33.148 71.9949 31.36 70.7229 29.776ZM79.9903 25.456C81.2863 24.184 83.0743 23.548 85.3543 23.548C87.1543 23.548 88.5943 24.244 89.6743 25.636C90.7543 27.004 91.2943 28.864 91.2943 31.216C91.2943 33.568 90.6943 35.62 89.4943 37.372C88.3183 39.1 86.7943 39.964 84.9223 39.964C82.9063 39.964 81.2623 39.1 79.9903 37.372C78.7183 35.62 78.0823 33.508 78.0823 31.036C78.0823 28.588 78.7183 26.728 79.9903 25.456ZM81.7903 35.32C82.6303 36.664 83.7583 37.336 85.1743 37.336C85.9903 37.336 86.6863 36.988 87.2623 36.292C88.2223 35.116 88.7023 33.556 88.7023 31.612C88.7023 29.644 88.4143 28.228 87.8383 27.364C87.2863 26.476 86.3263 26.032 84.9583 26.032C83.5663 26.032 82.4863 26.464 81.7183 27.328C80.9503 28.168 80.5663 29.38 80.5663 30.964C80.5663 32.548 80.9743 34 81.7903 35.32ZM93.1374 17.212C93.4494 16.876 93.8214 16.684 94.2534 16.636L108.833 16.42C109.529 16.636 109.877 16.984 109.877 17.464C109.877 18.664 109.385 19.264 108.401 19.264C106.385 19.264 104.477 19.312 102.677 19.408C102.557 21.592 102.497 23.404 102.497 24.844V26.068L102.641 38.704C102.641 39.472 102.449 39.904 102.065 40C101.801 40.096 101.441 40.144 100.985 40.144C100.289 40.144 99.9054 39.748 99.8334 38.956C99.6894 37.108 99.6174 33.664 99.6174 28.624C99.6174 23.56 99.6894 20.512 99.8334 19.48L97.6014 19.516L93.9294 19.48C93.5694 19.48 93.2694 19.372 93.0294 19.156C92.8134 18.916 92.7054 18.616 92.7054 18.256C92.7054 17.896 92.8494 17.548 93.1374 17.212ZM112.389 39.64C112.053 39.88 111.705 40 111.345 40C110.673 40 110.337 39.712 110.337 39.136L110.481 24.484C110.481 24.148 110.589 23.884 110.805 23.692C111.045 23.476 111.345 23.368 111.705 23.368C112.065 23.368 112.365 23.452 112.605 23.62C112.869 23.812 113.013 24.1 113.037 24.484C113.061 24.748 113.073 25.624 113.073 27.112C113.073 33.664 113.025 37.564 112.929 38.812C112.905 39.1 112.725 39.376 112.389 39.64ZM128.099 26.032C127.763 26.32 127.415 26.464 127.055 26.464L124.139 26.104C120.251 26.104 118.307 28.048 118.307 31.936C118.307 33.904 118.895 35.464 120.071 36.616C120.647 37.216 121.247 37.516 121.871 37.516C122.471 37.516 123.563 37.24 125.147 36.688C126.731 36.136 127.571 35.86 127.667 35.86C128.315 35.86 128.639 36.16 128.639 36.76C128.639 37.264 128.363 37.696 127.811 38.056C124.787 39.328 122.615 39.964 121.295 39.964C120.479 39.964 119.675 39.7 118.883 39.172C118.091 38.644 117.467 37.96 117.011 37.12C116.075 35.464 115.607 33.688 115.607 31.792C115.607 29.224 116.375 27.208 117.911 25.744C119.471 24.256 121.439 23.512 123.815 23.512C125.231 23.512 126.611 23.74 127.955 24.196V24.232C128.387 24.424 128.603 24.712 128.603 25.096C128.603 25.408 128.435 25.72 128.099 26.032ZM133.398 40C132.678 40 132.33 39.628 132.354 38.884V36.976C132.354 35.656 132.282 33.652 132.138 30.964C131.994 28.132 131.874 26.428 131.778 25.852C131.682 25.252 131.634 24.784 131.634 24.448C131.634 24.232 131.79 24.004 132.102 23.764C132.414 23.5 132.738 23.368 133.074 23.368C133.482 23.368 133.806 23.584 134.046 24.016C134.55 25.12 134.802 27.424 134.802 30.928C136.434 29.584 137.634 28.492 138.402 27.652C139.338 26.644 140.262 25.456 141.174 24.088C141.51 23.584 141.906 23.332 142.362 23.332C143.274 23.332 143.73 23.632 143.73 24.232C143.73 25.384 142.182 27.544 139.086 30.712C140.382 31.864 141.618 33.376 142.794 35.248C143.97 37.024 144.558 38.152 144.558 38.632C144.558 39.04 144.438 39.364 144.198 39.604C143.958 39.844 143.658 39.964 143.298 39.964C142.986 39.964 142.626 39.724 142.218 39.244C141.834 38.74 141.27 37.9 140.526 36.724C139.926 35.716 139.386 34.924 138.906 34.348C138.402 33.676 137.766 33.028 136.998 32.404C136.302 33.028 135.594 33.592 134.874 34.096L134.982 38.812C134.982 39.604 134.454 40 133.398 40Z" fill="#3282B8"/>
</g>
<defs>
<filter id="filter0_d_16_459" x="25.036" y="14.42" width="123.522" height="32.876" filterUnits="userSpaceOnUse" color-interpolation-filters="sRGB">
<feFlood flood-opacity="0" result="BackgroundImageFix"/>
<feColorMatrix in="SourceAlpha" type="matrix" values="0 0 0 0 0 0 0 0 0 0 0 0 0 0 0 0 0 0 127 0" result="hardAlpha"/>
<feOffset dy="2"/>
<feGaussianBlur stdDeviation="2"/>
<feComposite in2="hardAlpha" operator="out"/>
<feColorMatrix type="matrix" values="0 0 0 0 0 0 0 0 0 0 0 0 0 0 0 0 0 0 0.25 0"/>
<feBlend mode="normal" in2="BackgroundImageFix" result="effect1_dropShadow_16_459"/>
<feBlend mode="normal" in="SourceGraphic" in2="effect1_dropShadow_16_459" result="shape"/>
</filter>
</defs>
</svg>
